<?xml version="1.0" encoding="UTF-8" standalone="no"?>
<!-- Created with Inkscape (http://www.inkscape.org/) -->

<svg
   xmlns:dc="http://purl.org/dc/elements/1.1/"
   xmlns:cc="http://creativecommons.org/ns#"
   xmlns:rdf="http://www.w3.org/1999/02/22-rdf-syntax-ns#"
   xmlns:svg="http://www.w3.org/2000/svg"
   xmlns="http://www.w3.org/2000/svg"
   version="1.1"
   width="18"
   height="28"
   viewBox="0 0 18 28"
   id="svg2">
  <defs
     id="defs8" />
  <metadata
     id="metadata7">
    <rdf:RDF>
      <cc:Work
         rdf:about="">
        <dc:format>image/svg+xml</dc:format>
        <dc:type
           rdf:resource="http://purl.org/dc/dcmitype/StillImage" />
        <dc:title>lib_jquery</dc:title>
        <dc:creator>
          <cc:Agent>
            <dc:title>stephan.kellermayr@gmail.com</dc:title>
          </cc:Agent>
        </dc:creator>
        <dc:rights>
          <cc:Agent>
            <dc:title>sonority.at</dc:title>
          </cc:Agent>
        </dc:rights>
        <dc:date>06.04.2016</dc:date>
      </cc:Work>
    </rdf:RDF>
  </metadata>
  <path
     d="m 8.9992131,0.5002112 c -4.4612598,0 -8.0777752,3.616478 -8.0777752,8.077784 0,1.032221 0.1943396,2.0186698 0.5472209,2.9261308 l 0.00125,0.0034 c 0.1342034,0.34459 0.2916887,0.67717 0.4699599,0.996907 L 8.9994101,27.499916 16.051249,12.519879 c 0.653542,-1.166272 1.027313,-2.510052 1.027313,-3.9420118 0,-4.4612722 -3.61773,-8.0777842 -8.0789919,-8.0777842 z"
     id="path3762"
     style="fill:#e62222;fill-opacity:1;stroke:#be1818;stroke-width:1;stroke-miterlimit:4;stroke-opacity:1;stroke-dasharray:none" />
  <path
     d="m 9,2.8982277 1.601933,3.472985 3.79803,0.4503183 -2.807981,2.59674 0.745378,3.751298 L 9,11.301456 5.66264,13.169569 6.408018,9.418271 3.600037,6.821531 7.398066,6.3712127 z"
     id="path3768"
     style="color:#000000;fill:#ffffff;fill-opacity:1;fill-rule:nonzero;stroke:none;stroke-width:5.22700024;marker:none;visibility:visible;display:inline;overflow:visible;enable-background:accumulate" />
</svg>
