<?xml version="1.0" encoding="UTF-8" standalone="no"?>
<!-- Created with Inkscape (http://www.inkscape.org/) -->

<svg
   xmlns:dc="http://purl.org/dc/elements/1.1/"
   xmlns:cc="http://creativecommons.org/ns#"
   xmlns:rdf="http://www.w3.org/1999/02/22-rdf-syntax-ns#"
   xmlns:svg="http://www.w3.org/2000/svg"
   xmlns="http://www.w3.org/2000/svg"
   version="1.1"
   width="16"
   height="16"
   viewBox="0 0 16 16"
   id="svg2">
  <defs
     id="defs8" />
  <metadata
     id="metadata7">
    <rdf:RDF>
      <cc:Work
         rdf:about="">
        <dc:format>image/svg+xml</dc:format>
        <dc:type
           rdf:resource="http://purl.org/dc/dcmitype/StillImage" />
        <dc:title>lib_jquery</dc:title>
        <dc:creator>
          <cc:Agent>
            <dc:title>stephan.kellermayr@gmail.com</dc:title>
          </cc:Agent>
        </dc:creator>
        <dc:rights>
          <cc:Agent>
            <dc:title>sonority.at</dc:title>
          </cc:Agent>
        </dc:rights>
        <dc:date>06.04.2016</dc:date>
      </cc:Work>
    </rdf:RDF>
  </metadata>
  <path
     d="m 7.99953,0.00986769 c -2.6404431,0 -4.780915,2.14044791 -4.780915,4.78091491 0,0.6109294 0.1150222,1.1947727 0.3238777,1.7318582 l 7.489e-4,0.00223 c 0.079427,0.2039518 0.1726387,0.400793 0.2781509,0.5900336 L 7.999655,15.990131 12.173359,7.1240386 c 0.386806,-0.6902672 0.608026,-1.4855914 0.608026,-2.3331192 0,-2.640443 -2.141191,-4.78091499 -4.7816344,-4.78091499 z M 7.99351,1.426077 c 1.847038,0 3.344577,1.4966989 3.344577,3.3438576 0,1.8470384 -1.497442,3.344577 -3.344577,3.344577 -1.8470386,0 -3.3438575,-1.4974426 -3.3438575,-3.344577 0,-1.8470387 1.4966989,-3.3438576 3.3438575,-3.3438576 z"
     id="path2985"
     style="fill:#bdbdbd" />
</svg>
